<?xml version="1.0" encoding="UTF-8" standalone="no"?>
<!-- Created with Inkscape (http://www.inkscape.org/) -->

<svg
   xmlns:dc="http://purl.org/dc/elements/1.1/"
   xmlns:cc="http://creativecommons.org/ns#"
   xmlns:rdf="http://www.w3.org/1999/02/22-rdf-syntax-ns#"
   xmlns:svg="http://www.w3.org/2000/svg"
   xmlns="http://www.w3.org/2000/svg"
   xmlns:sodipodi="http://sodipodi.sourceforge.net/DTD/sodipodi-0.dtd"
   xmlns:inkscape="http://www.inkscape.org/namespaces/inkscape"
   width="210mm"
   height="297mm"
   viewBox="0 0 744.09448819 1052.3622047"
   id="svg2"
   version="1.1"
   inkscape:version="0.91 r13725"
   sodipodi:docname="drp logo.svg">
  <defs
     id="defs4" />
  <sodipodi:namedview
     id="base"
     pagecolor="#ffffff"
     bordercolor="#666666"
     borderopacity="1.0"
     inkscape:pageopacity="0.0"
     inkscape:pageshadow="2"
     inkscape:zoom="0.35"
     inkscape:cx="-52.142857"
     inkscape:cy="520"
     inkscape:document-units="px"
     inkscape:current-layer="layer1"
     showgrid="false"
     inkscape:window-width="1600"
     inkscape:window-height="837"
     inkscape:window-x="-8"
     inkscape:window-y="-8"
     inkscape:window-maximized="1" />
  <metadata
     id="metadata7">
    <rdf:RDF>
      <cc:Work
         rdf:about="">
        <dc:format>image/svg+xml</dc:format>
        <dc:type
           rdf:resource="http://purl.org/dc/dcmitype/StillImage" />
        <dc:title></dc:title>
      </cc:Work>
    </rdf:RDF>
  </metadata>
  <g
     inkscape:label="Layer 1"
     inkscape:groupmode="layer"
     id="layer1">
    <path
       style="fill:#000000"
       d="m 839.06252,1069.6943 c -4.4568,-0.8585 -3.2832,-3.6588 2.5,-5.9649 29.0413,-11.581 48.8426,-39.9096 53.5353,-76.59046 2.4212,-18.92487 -1.2967,-39.58697 -9.71,-53.96257 -6.2183,-10.6255 -15.4265,-18.7752 -37.8878,-33.5328 -32.9654,-21.6591 -62.335,-42.8929 -72.9815,-52.7644 -20.1985,-18.7282 -31.5442,-33.4147 -35.2157,-45.5851 -3.2426,-10.7485 -4.3113,-72.37 -4.9878,-287.59257 -0.7535,-239.70955 -1.6572,-269.25184 -9.3873,-306.875 -11.4022,-55.49615 -46.1612,-106.17659 -91.6064,-133.567158 -6.983,-4.20878 -18.0401,-9.98705 -24.5713,-12.84059 -12.4898,-5.45686 -15,-6.92683 -15,-8.78374 0,-0.67801 99.5748,-0.97536 247.1875,-0.73817 230.53368,0.37045 248.07178,0.54767 260.31258,2.63051 36.3086,6.17814 61.4276,15.0584 83.125,29.386851 11.4962,7.59187 32.047,28.497117 44.959,45.734447 14.6265,19.52626 33.915,48.49545 38.9603,58.51417 17.1514,34.05813 20.9442,76.34784 11.1034,123.80359 -6.7392,32.49905 -17.7812,56.12381 -36.2072,77.46648 -6.4018,7.41511 -39.1179,36.99662 -49.7888,45.0183 -14.9385,11.22983 -28.4319,17.48616 -52.7767,24.47046 -34.7802,9.97807 -60.4288,12.73915 -153.12504,16.484 -29.45344,1.18987 -34.61554,1.68631 -36.05504,3.46727 -1.3788,1.70588 -1.5242,11.60429 -0.811,55.20358 1.3873,84.8109 1.0228,357.44187 -0.514,384.48937 -4.0128,70.62397 -23.7678,120.74443 -55.132,139.87553 -14.5592,8.8808 -42.1027,14.9153 -55.9255,12.2529 z m 15.9375,-256.57383 c 0,-39.4599 0.1025,-41.2609 2.4178,-42.5 3.7872,-2.0269 7.7653,-1.5524 16.3994,1.956 20.2668,8.2351 41.6886,-0.2089 45.5065,-17.9375 1.1201,-5.2014 -0.3986,-5.2376 -8.2544,-0.1966 -9.0745,5.8231 -14.3645,6.0666 -24.4055,1.1235 -9.3906,-4.623 -22.5245,-16.8756 -26.5521,-24.7704 -3.7539,-7.3582 -5.8277,-30.9364 -3.9849,-45.3059 3.3805,-26.35987 10.9119,-41.39747 31.6847,-63.26327 13.389,-14.0937 21.3366,-25.41839 19.2808,-27.47408 -0.3391,-0.33908 -5.8205,2.05142 -12.181,5.31218 -12.786,6.5551 -18.8438,7.4434 -25.8735,3.7941 -5.8296,-3.0263 -11.089,-10.95182 -14.5452,-21.91895 -5.566,-17.66188 -6.0185,-24.97953 -4.5451,-73.51444 1.4796,-48.73716 3.2696,-67.13455 7.3501,-75.5407 6.1661,-12.7029 17.8575,-22.30791 27.1535,-22.30791 6.9601,0 11.2055,3.5214 15.7007,13.02345 3.3092,6.99483 3.5972,8.7489 3.608,21.97655 0.016,19.80478 1.0529,27.71938 3.5668,27.23524 3.162,-0.60894 8.7431,-10.07959 10.8989,-18.49428 1.3773,-5.37661 1.8632,-11.70861 1.5716,-20.4838 -0.3784,-11.38531 -0.8495,-13.56886 -4.5469,-21.07175 -5.1196,-10.3889 -14.776,-21.12772 -22.253,-24.74725 -9.8811,-4.78336 -20.4391,-1.91684 -25.6845,6.97343 -3.0904,5.23777 -6.248,6.34371 -10.3807,3.6358 l -3.182,-2.08491 -0.023,-50.16874 c -0.012,-27.5928 -0.5298,-54.991 -1.1503,-60.88488 -1.7342,-16.47515 -3.1974,-130.6282 -1.6862,-131.56215 0.6927,-0.42817 4.5725,1.80512 8.6217,4.96286 4.0491,3.15774 11.2995,8.42514 16.112,11.70534 4.8125,3.2802 10.2633,7.57188 12.1128,9.53705 4.9597,5.26988 10.784,18.66964 13.0078,29.92734 2.403,12.16379 2.6608,46.75442 0.4867,65.27664 -0.8317,7.08452 -1.2257,13.16741 -0.8755,13.51752 1.1898,1.1898 12.0638,-46.33716 13.4758,-58.89846 2.2614,-20.11816 -0.8871,-43.56705 -8.0137,-59.6814 -1.6879,-3.81664 -10.0753,-18.66843 -18.6388,-33.00398 -8.5633,-14.33553 -19.3291,-33.09587 -23.924,-41.689617 -11.8746,-22.209631 -10.545,-20.991331 -23.9967,-21.987391 -10.404,-0.77037 -11.4434,-0.64259 -12.2844,1.5104 -0.5052,1.29359 -3.1956,8.539491 -5.9787,16.101991 -8.9243,24.250497 -14.4628,32.844257 -29.5639,45.872547 -4.1636,3.59218 -7.3665,6.73498 -7.1175,6.984 0.7477,0.7477 8.3337,-3.46174 16.3101,-9.0504 9.6371,-6.75229 11.1955,-7.26029 14.3586,-4.68097 2.908,2.37113 6.4594,14.32583 6.5775,22.14092 0.1038,6.86574 -2.3037,11.42581 -14.5711,27.59917 -18.846,24.84642 -31.9676,55.82743 -37.0109,87.38473 -1.7948,11.2314 -1.7882,38.07918 0.013,48.31569 2.0984,11.93177 5.2515,22.56977 6.3544,21.43841 0.5383,-0.55226 2.1466,-11.41035 3.574,-24.1291 2.7895,-24.85579 5.5564,-38.31581 10.668,-51.89584 4.4203,-11.7436 18.0539,-37.67266 22.1014,-42.03357 8.6201,-9.28755 8.963,-6.37181 9.5024,80.80441 0.6942,112.22022 -0.8623,128.16627 -15.312,156.875 -6.5648,13.04287 -13.2392,22.53386 -20.0828,28.5578 -7.3706,6.48797 -12.1871,7.49234 -19.7936,4.12759 -3.8544,-1.70494 -5.744,-2.05233 -5.7255,-1.0526 0.059,3.21965 4.9547,12.0903 9.3686,16.97597 4.0186,4.44816 5.3414,5.14013 9.8119,5.133 6.179,-0.01 8.9929,-1.74785 22.1341,-13.67154 6.4479,-5.85043 10.6569,-8.80028 11.8845,-8.32918 2.9226,1.1215 6.3963,10.32495 8.0709,21.38396 2.0899,13.80117 -0.068,64.81231 -2.86,67.60419 -0.4274,0.42733 -5.961,-1.61102 -12.2971,-4.52968 -16.4357,-7.57101 -26.4469,-7.13742 -34.5003,1.49423 -4.5547,4.8817 -7.847,13.61042 -7.7062,20.43126 l 0.129,6.25 0.8495,-5 c 1.5835,-9.31959 6.1521,-14.13231 15.9097,-16.75978 17.8441,-4.80493 35.7955,11.97465 35.7955,33.45898 0,9.3716 -2.9295,22.9201 -7.4501,34.4554 -5.0016,12.7626 -12.9424,24.60827 -24.5151,36.57097 -6.1247,6.3309 -10.7782,12.0891 -10.3413,12.7961 0.437,0.7069 3.1073,1.9081 5.934,2.6693 6.7566,1.8194 14.3324,-0.035 23.8211,-5.8312 5.161,-3.1525 8.3372,-4.2821 11.25,-4.0012 6.4774,0.6246 7.555,6.7413 7.6663,43.5164 0.09,29.8459 -0.5188,37.5 -2.9839,37.5 -0.662,0 -4.1097,-3.0661 -7.6617,-6.8135 -14.1887,-14.9697 -27.6653,-13.2148 -37.0612,4.826 -2.743,5.2667 -3.3211,8.0481 -3.3572,16.1496 -0.043,9.4961 0.078,9.8957 4.0387,13.4375 3.2973,2.9485 5.2202,3.6491 10,3.6434 7.9162,-0.01 14.274,-1.902 21.2497,-6.3258 7.4408,-4.7188 15.2723,-5.1554 15.3322,-0.8547 0.1306,9.3761 2.4703,42.4413 3.0719,43.4149 1.4897,2.4104 23.4006,16.2726 25.7209,16.2726 2.3418,0 2.4181,-1.2986 2.4181,-41.206 z m 117.1252,-386.84013 c 19.59564,-4.12208 42.50268,-14.68133 66.17158,-30.50258 15.765,-10.53801 23.0505,-17.42646 31.2806,-29.57626 11.5669,-17.0756 16.6178,-30.42396 23.649,-62.5 4.0425,-18.44145 4.6594,-23.39771 4.6679,-37.5 0.013,-18.8129 -1.0879,-23.81233 -12.9156,-58.75 -7.9145,-23.37875 -13.026,-34.16115 -23.8951,-50.40618 -7.7355,-11.56148 -21.7978,-29.34497 -27.538,-34.82556 -13.6879,-13.06841 -45.07404,-24.218807 -73.67558,-26.174337 -8.358,-0.57146 -12.2692,-0.39333 -12.8747,0.58635 -0.8301,1.34309 0.9257,202.423537 2.5312,289.882227 l 0.7628,41.5625 6.6487,0 c 3.6567,0 10.491,-0.80828 15.1872,-1.79616 z m 118.71268,-3.30328 c 20.0458,-6.9914 35.2408,-15.46708 56.964,-31.77411 26.1598,-19.63741 36.251,-30.75048 48.2415,-53.12645 10.0117,-18.68296 13.6993,-35.39708 11.3518,-51.45143 -0.797,-5.45115 -1.1679,-10.19253 -0.824,-10.53641 0.3439,-0.34389 7.0217,1.47774 14.8396,4.04806 16.0444,5.275 26.0703,6.03524 33.9918,2.57753 6.3646,-2.77818 4.8031,-4.63441 -3.9138,-4.65259 -8.109,-0.0169 -18.9266,-2.58794 -23.5016,-5.58557 -6.1181,-4.00872 -8.1949,-9.13303 -7.6431,-18.85855 0.6686,-11.78413 5.318,-20.60599 13.3431,-25.3176 4.9221,-2.88982 7.0794,-3.34002 16.0232,-3.34393 8.87,-0.004 10.022,-0.23995 8.125,-1.66486 -4.1143,-3.09055 -11.2226,-6.3373 -17.1321,-7.82534 -8.3097,-2.09244 -13.6736,-0.14571 -24.4835,8.88599 -4.9205,4.11109 -9.9979,7.4747 -11.2829,7.4747 -2.6547,0 -3.637,-2.98728 -6.7812,-20.625 -5.536,-31.05411 -15.9293,-52.35319 -34.0794,-69.83945 -14.1425,-13.6252 -39.1539,-33.02824 -48.4325,-37.57241 -11.5359,-5.649687 -21.0266,-8.729617 -36.8137,-11.946837 -19.0167,-3.87534 -21.6723,-2.95198 -8.0589,2.80205 19.6474,8.304507 32.0412,16.547197 46.6482,31.024207 18.5558,18.3904 39.0367,46.36806 36.0963,49.30853 -0.3441,0.34408 -3.0341,-0.22415 -5.9778,-1.26274 -8.572,-3.02436 -20.6692,-2.48845 -26.9528,1.19402 -8.9559,5.2485 -11.327,14.21637 -5.4318,20.5441 3.1844,3.41805 3.8198,3.31428 6.2896,-1.02713 2.8249,-4.96578 7.5234,-7.78992 14.2149,-8.54414 17.7351,-1.99901 32.936,16.02681 36.879,43.73294 2.8061,19.71745 -2.9139,27.6825 -23.7867,33.12308 l -4.375,1.14037 4.375,2.71953 c 3.4405,2.13868 6.3106,2.72053 13.4375,2.7242 7.2787,0.004 9.5368,0.479 11.4723,2.41458 7.2627,7.26257 3.3248,41.64221 -6.557,57.24597 -4.51,7.12165 -8.0705,9.18824 -19.1495,11.11483 -13.3221,2.31665 -21.7831,6.6135 -31.4857,15.98992 -7.1319,6.89198 -14.0621,15.73938 -12.3289,15.73938 0.2916,0 4.2241,-2.47709 8.739,-5.50463 10.6386,-7.13393 20.4278,-10.74537 29.1264,-10.74537 9.9236,0 11.7469,1.31704 11.7412,8.48147 0,6.74997 -1.9632,10.45155 -10.5638,19.9727 -11.6037,12.84543 -25.1472,22.45848 -46.3065,32.86795 -11,5.4115 -19.3418,9.85908 -18.5372,9.88349 0.8047,0.0244 6.4297,-1.68786 12.5,-3.80505 z M -312.81503,1032.5429 c -10.78442,-3.8485 -16.95357,-11.7699 -15.4419,-19.8277 0.94735,-5.0499 8.23468,-12.4763 15.01463,-15.30096 4.62705,-1.9279 5.05245,-1.9082 8.125,0.3768 1.78327,1.3262 3.42206,3.62036 3.64175,5.09826 0.33111,2.2275 -0.22527,2.6871 -3.25265,2.6871 -4.33999,0 -11.95394,4.8014 -12.55385,7.9165 -0.58208,3.0225 2.00205,5.824 7.74848,8.4003 14.25988,6.3928 26.61243,-12.0042 18.38375,-27.37966 -2.38597,-4.4581 -8.66355,-6.9006 -17.60017,-6.8476 -8.27256,0.049 -8.4101,0.095 -34.375,11.4829 -7.01473,3.07656 -8.71319,3.28836 -26.25,3.27196 -15.77056,-0.015 -20.14865,-0.4536 -27.55191,-2.76276 -18.18755,-5.6726 -29.87077,-16.4641 -33.68707,-31.11597 -3.5713,-13.7111 -1.69901,-25.2815 8.80062,-54.3865 12.67593,-35.1376 14.69076,-55.2267 11.26602,-112.3291 -1.64375,-27.4072 -2.018,-53.9275 -1.84629,-130.83547 0.21487,-96.23443 0.2091,-96.4735 -2.4604,-101.98796 -4.23098,-8.74005 -36.32227,-35.845 -66.16889,-55.88759 -5.59898,-3.75984 -9.7687,-7.22452 -9.26603,-7.69931 0.50267,-0.47479 5.8768,-3.70381 11.94251,-7.17563 15.49289,-8.86761 26.47974,-17.30736 37.37129,-28.70741 15.39199,-16.11061 24.17615,-33.69816 27.07552,-54.21034 0.78652,-5.56433 1.43267,-53.96656 1.65695,-124.12126 0.34103,-106.66479 0.20729,-115.6251 -1.84518,-123.62444 -8.11739,-31.63677 -29.26297,-49.89055 -87.16214,-75.242147 -10.65625,-4.66591 -21.71157,-10.053921 -24.56738,-11.973351 -17.77106,-11.94417 -32.56318,-41.22035 -29.87715,-59.13209 0.91938,-6.13089 2.76602,-8.34404 4.00068,-4.7947 6.47023,18.60023 18.07268,31.40264 37.36684,41.23141 13.50319,6.87874 23.37627,10.55857 37.27887,13.89432 7.90715,1.89722 14.61615,2.06984 58.92314,1.516 90.28551,-1.12857 198.78395,-0.62714 220,1.01674 82.50699,6.39286 139.999854,17.958191 201.2499841,40.483668 32.2178999,11.84853 52.5734799,22.71633 85.0000129,45.38135 50.503093,35.29993 83.233773,72.13504 107.861553,121.38735 9.46674,18.93221 14.66859,33.00379 20.76296,56.16601 8.5869,32.63527 8.8882,35.57367 8.7748,85.56488 -0.092,40.6978 -0.4281,47.46329 -4.0519,81.64328 -4.9324,46.52301 -6.9689,60.29324 -11.48912,77.6891 -7.55205,29.06342 -17.04735,54.61982 -31.13245,83.79262 -20.71637,42.90717 -43.92829,75.90127 -75.64884,107.52937 -28.271556,28.1891 -59.539526,49.4976 -98.1550459,66.8905 -94.6643001,42.638 -195.6682541,65.1346 -316.9219541,70.5878 -43.63258,1.9623 -76.06823,11.3978 -92.01281,26.7663 -5.426,5.23 -6.11219,6.4855 -6.11219,11.1833 0,8.8927 5.31354,15.9797 15.99676,21.3358 5.94195,2.979 23.52533,6.0124 27.03805,4.6645 2.06414,-0.7921 1.98874,-1.1907 -0.9552,-5.0505 -4.20905,-5.5183 -5.21504,-9.9802 -3.29515,-14.6153 4.01574,-9.6948 20.04384,-9.9071 28.94851,-0.3833 6.1586,6.5869 7.67923,15.3186 4.14203,23.7843 -1.03125,2.4681 -1.875,4.70007 -1.875,4.95977 0,1.4477 5.02917,-0.105 15.25914,-4.71147 9.72907,-4.3807 12.7822,-5.1837 19.7083,-5.1837 9.12848,0 14.5475,2.1425 18.66795,7.3809 6.22536,7.91417 6.68598,24.95093 0.99646,36.85423 -7.05633,14.763 -14.85778,18.8415 -27.44689,14.3489 z m 14.77868,-168.52893 c -7.11963,-44.1922 -8.66965,-85.7536 -4.35507,-116.7744 1.82942,-13.153 2.99754,-15.4969 14.22203,-28.5381 35.7509,-41.5372 65.21717,-96.36047 67.72274,-126.00131 1.40226,-16.58873 0.031,-15.95185 -10.6654,4.95349 -10.57729,20.67255 -27.25888,46.62025 -39.08052,60.78855 -6.85083,8.2107 -21.33295,19.63427 -24.89117,19.63427 -1.08464,0 -1.22214,-14.55477 -0.55206,-58.43747 1.27291,-83.36245 1.28386,-99.02785 0.0813,-116.16565 -1.15817,-16.50424 -0.0904,-22.12694 4.47722,-23.57665 2.23838,-0.71044 4.73448,0.51996 17.41011,8.582 3.05307,1.94182 5.06596,2.1476 13.66797,1.39724 9.66651,-0.84323 10.00136,-0.97526 8.02142,-3.16306 -1.1364,-1.25572 -4.7217,-3.16514 -7.96732,-4.24317 -9.25327,-3.07343 -12.1444,-7.02333 -15.16205,-20.71452 -2.49476,-11.31879 -2.70253,-21.37713 -0.54723,-26.49119 1.38463,-3.28543 -2.20796,-2.77298 -6.62685,0.94528 -2.53337,2.1317 -4.20606,5.14601 -5.23449,9.43297 -0.87382,3.64251 -2.11206,6.10331 -2.93531,5.83347 -3.58875,-1.17628 -4.58339,-12.70362 -4.25332,-49.29388 0.40613,-45.02575 -0.16509,-43.60974 14.42323,-35.75377 15.91389,8.56979 33.65156,10.013 46.53118,3.78598 l 5.625,-2.71956 -6.41782,-0.80484 c -4.65402,-0.58365 -8.94823,-2.4341 -15.625,-6.73309 -18.15943,-11.69236 -29.2045,-23.25522 -37.01957,-38.75506 -9.23577,-18.31755 -10.20472,-30.3903 -7.32367,-91.25 1.10655,-23.375 2.01172,-44.89063 2.01148,-47.8125 -2.3e-4,-2.92188 0.49798,-5.3125 1.10712,-5.3125 0.60915,0 3.41467,3.88347 6.2345,8.62994 2.81982,4.74646 9.82922,13.73222 15.57644,19.96837 5.74722,6.23614 12.23676,14.6917 14.42121,18.79013 4.82037,9.04397 8.58974,23.21901 9.69341,36.4531 0.45124,5.41063 1.22303,9.5887 1.71509,9.28457 2.17024,-1.34127 4.36615,-17.25949 4.22489,-30.62611 -0.38269,-36.2105 -20.14928,-80.99946 -48.82787,-110.63876 -3.99861,-4.13257 -12.56575,-12.2734 -19.03806,-18.09075 -10.54518,-9.47807 -11.66935,-10.19095 -10.81978,-6.86125 0.52144,2.04367 2.91085,13.27826 5.3098,24.96576 3.61738,17.62359 4.4764,24.88832 5.03372,42.56977 0.81652,25.90541 -2.03663,69.30523 -4.5562,69.30523 -0.47069,0 -4.38482,-5.39 -8.69807,-11.97778 -8.88888,-13.57631 -23.80891,-29.24522 -37.62662,-39.51521 -8.38515,-6.23225 -17.5,-11.77915 -17.5,-10.64974 0,0.23183 3.71109,3.48064 8.24685,7.2196 26.26509,21.65109 36.93607,50.54338 35.05859,94.92313 -1.25649,29.7007 -8.70178,58.81371 -20.36347,79.62635 -9.03967,16.13314 -12.70016,24.24684 -15.64752,34.68378 -1.7792,6.30035 -4.13145,11.44511 -6.42954,14.0625 l -3.62389,4.12737 3.6838,0 c 2.02609,0 7.00624,-1.205 11.06699,-2.67779 9.98944,-3.62302 27.83888,-3.96422 34.4825,-0.65913 6.10931,3.03927 12.65578,9.53645 16.92274,16.79531 2.86037,4.86601 3.47047,7.35935 3.43582,14.04161 -0.0516,9.97274 -1.57002,12.97289 -12.33583,24.375 -8.95043,9.47943 -10.49505,12.29131 -8.2427,15.00523 3.73108,4.49568 -3.72373,5.72896 -14.78108,2.44527 -10.34979,-3.07355 -14.18275,-11.9745 -11.03112,-25.61656 l 1.72318,-7.45894 -5.28721,0 c -6.60182,0 -10.89015,3.88176 -13.1313,11.8864 -5.76017,20.57333 11.23384,40.56938 34.50584,40.60139 10.52064,0.0145 16.00884,-2.8651 19.6628,-10.31679 1.25974,-2.56905 2.80661,-4.671 3.4375,-4.671 2.04105,0 1.21576,12.29236 -1.26334,18.81683 -2.98024,7.84333 -10.00117,17.26882 -23.46036,31.49515 -5.69098,6.01532 -11.81881,13.26811 -13.61743,16.11731 -8.21023,13.00585 -10.40987,30.81757 -5.44463,44.08836 4.94457,13.21555 18.26662,24.39205 31.4269,26.36555 l 5.79147,0.8685 0.88714,11.8328 c 1.28806,17.1803 0.005,46.03357 -2.38479,53.61477 -1.09632,3.4784 -6.45082,13.0565 -11.89889,21.2846 -21.70823,32.7856 -33.97523,64.272 -33.80377,86.7661 l 0.0524,6.875 2.29745,-8.7582 c 6.47986,-24.7023 17.81914,-41.8773 31.85817,-48.2538 5.19365,-2.3589 13.82103,-3.1529 14.921,-1.3731 0.3365,0.5445 -0.2404,6.8726 -1.28198,14.0625 -3.74184,25.8292 0.0802,83.9463 6.30807,95.9165 2.13473,4.1031 6.31003,8.0288 11.38464,10.7041 5.53085,2.9157 6.02865,2.5992 5.08864,-3.2355 z m 113.82504,-22.9189 c 27.95362,-10.5201 61.7431,-27.0191 79.8363,-38.9831 30.046954,-19.8683 58.081064,-56.3065 84.368594,-109.6605 22.7424101,-46.15877 35.9516,-88.53297 41.49871,-133.12497 2.2316,-17.93948 2.22328,-102.73917 -0.0125,-123.125 -5.84355,-53.29481 -17.8204099,-116.44951 -26.5496399,-140 C -25.452556,241.21124 -75.830946,172.00405 -119.37501,139.17507 c -28.88156,-21.77455 -56.83224,-29.52625 -77.2355,-21.4201 -9.17344,3.64458 -8.93817,1.83672 -9.63948,74.07153 -1.32759,136.74119 0.89699,300.31921 6.88472,506.24997 3.68012,126.5668 4.43996,146.25 5.64572,146.25 0.50705,0 4.78576,-1.4541 9.50824,-3.2314 z m 58.54205,-523.05177 c -13.74196,-4.35849 -22.27303,-14.54737 -25.57944,-30.55021 -5.12813,-24.81982 13.25507,-68.61025 38.8988,-92.66054 10.42584,-9.77799 11.10002,-9.9667 17.503464,-4.89946 5.614,4.44251 16.09643,16.31376 16.09643,18.22905 0,0.59815 -3.23437,3.14148 -7.1875,5.65187 -25.485854,16.18449 -39.187544,33.95649 -43.585944,56.53378 -2.23013,11.44736 -1.45257,20.19401 2.40685,27.07432 5.65441,10.08037 15.74309,13.20999 26.6367,8.26299 6.091794,-2.76639 11.729894,-9.6346 11.729894,-14.28909 0,-3.2129 -3.78637,-8.31951 -6.16862,-8.31951 -0.64276,0 -2.73307,-0.5948 -4.64516,-1.32178 -4.792474,-1.82208 -1.750264,-3.63371 6.14464,-3.65908 5.01376,-0.0161 6.67043,0.63572 10.47341,4.1209 3.77382,3.45843 4.61784,5.18367 5.12668,10.47926 1.24463,12.95304 -4.74766,20.87043 -19.16648,25.32394 -10.185834,3.14609 -18.816304,3.15317 -28.683734,0.0235 z M 8.3090041,768.52027 c 50.2584399,-29.6039 50.3053399,-29.6379 66.2421299,-48.1484 14.102753,-16.3802 19.308453,-20.2148 26.386376,-19.4366 4.75945,0.5233 5.31664,0.3073 5.35225,-2.0749 0.0516,-3.4503 2.18059,-6.1477 6.83525,-8.6599 9.0693,-4.8948 -8.19384,-0.9405 -18.216663,4.1728 -2.9812,1.5208 -8.72516,6.07 -12.76435,10.1092 -4.0392,4.0392 -7.566193,7.344 -7.837753,7.344 -0.99761,0 1.13669,-8.3835 4.542613,-17.8433 1.92446,-5.3451 7.50358,-16.7194 12.39805,-25.27627 11.758763,-20.5575 24.188553,-46.792 33.464353,-70.6304 13.78905,-35.43721 19.63896,-58.82633 21.57224,-86.25 4.02241,-57.05835 4.55562,-59.34395 12.1747,-52.1875 6.03192,5.66566 22.69544,1.15879 28.72931,-7.77022 3.15165,-4.66387 3.93831,-16.76532 1.40976,-21.68696 -6.4226,-12.50116 -26.49861,-17.30639 -34.17756,-8.18048 -1.65456,1.96633 -3.53565,3.57516 -4.18018,3.57516 -0.64453,0 -2.11617,-5.20313 -3.27029,-11.5625 -4.69319,-25.8599 -11.53743,-41.76241 -45.0562,-104.6875 -8.606073,-16.15625 -17.380193,-34.15625 -19.498053,-40 -4.38726,-12.10557 -6.122813,-22.5 -3.75684,-22.5 0.82851,0 6.95375,1.36836 13.61162,3.0408 21.442703,5.38635 22.068553,5.3325 11.226793,-0.96595 -13.801963,-8.01816 -25.898913,-16.60486 -41.621566,-29.54397 -50.39115,-41.46993 -73.44685,-57.96938 -110.85731,-79.33333 -14.74388,-8.41977 -43.78816,-21.23239 -46.26164,-20.4079 -0.73612,0.24538 6.18949,4.86328 15.39026,10.26199 43.2152,25.35727 66.96687,42.48211 87.4436901,63.04651 11.5518299,11.6012 15.3909299,16.38582 19.0624999,23.7573 2.52863,5.07674 4.5975,10.45588 4.5975,11.95364 0,1.49775 -1.73901,4.3753 -3.86447,6.39455 -12.10684,11.50183 -11.42633,29.26233 1.76331,46.01979 7.02596,8.92651 14.91877,9.90947 20.68701,2.57634 4.52693,-5.75505 2.68875,-14.18004 -3.82921,-17.55062 -3.08315,-1.59436 -3.95201,-1.58304 -7.19451,0.0937 -2.02833,1.04889 -4.20427,2.82981 -4.8354,3.9576 -2.68194,4.79234 -6.90153,-4.68289 -5.04619,-11.33138 1.42352,-5.10113 6.98245,-10.51777 12.48636,-12.16678 3.95506,-1.18497 5.26358,-1.03376 8.8019,1.01707 7.25659,4.20597 10.6354,12.7687 19.87627,50.37124 4.67612,19.02784 9.950183,38.44341 11.720133,43.14574 5.57046,14.79937 14.56185,30.34506 22.915993,39.62067 9.14067,10.14892 8.92161,10.99433 -2.85618,11.02284 -12.766513,0.0309 -25.696716,-7.90634 -34.584656,-21.22987 l -2.08465,-3.125 0.95289,4.375 c 2.53109,11.62105 12.512983,23.8134 30.541473,37.30481 6.317853,4.72789 13.054783,10.65161 14.970943,13.16384 9.05916,11.87717 13.80811,29.49382 13.08269,48.53135 -0.25413,6.66876 -0.86861,12.53158 -1.36555,13.02852 -0.49693,0.49694 -2.9768,-1.51865 -5.51081,-4.47907 -4.0324,-4.71097 -18.643693,-13.44976 -20.082443,-12.011 -0.25773,0.25771 2.1629,4.03887 5.379163,8.40256 21.16647,28.7178 23.16525,52.74097 5.92808,71.24926 -6.61799,7.10601 -11.733583,9.80972 -18.560573,9.80972 -13.487523,0 -21.266733,-11.62523 -16.647043,-24.87727 0.76698,-2.20019 1.10051,-4.29435 0.74116,-4.6537 -1.0802,-1.08021 -7.5179,2.80239 -11.37606,6.86094 -6.99977,7.36332 -5.73325,21.03192 2.82873,30.5288 9.08504,10.07702 19.326703,11.90823 35.420426,6.33318 8.25419,-2.85933 9.92813,-3.09295 11.68928,-1.63132 1.63381,1.35595 1.8869,2.97695 1.23362,7.90154 -2.0097,15.14988 -15.646233,49.44106 -26.067383,65.55056 -6.86428,10.611 -14.833243,16.4872 -22.359023,16.4872 -8.97328,0 -12.81907,-8.2998 -6.68709,-14.4318 3.27735,-3.2773 6.85384,-3.8668 10.76399,-1.7742 3.89617,2.0852 3.1898,-4.4479 -0.88971,-8.2286 -4.11691,-3.8155 -7.61201,-3.8753 -13.07012,-0.2239 -8.37815,5.6049 -11.08427,23.7121 -5.93375,39.70397 l 2.68861,8.3479 -3.44216,12.3658 c -3.74115,13.4399 -6.13443,17.8263 -16.9775,31.1158 -7.26103,8.8994 -38.5235799,39.9688 -57.09546,56.7428 -5.6284,5.0836 -12.04235,11.4938 -14.25323,14.2449 -3.85887,4.8019 -3.6164,4.6944 6.05718,-2.6839 5.54233,-4.2273 24.0566701,-15.9205 41.1429701,-25.9849 z M -426.24999,509.38802 c 0,-4.77866 -0.6027,-11.49876 -1.33934,-14.93356 l -1.33932,-6.2451 -8.97318,7.51954 c -4.93524,4.13575 -9.09145,7.90272 -9.23601,8.37106 -0.27559,0.8928 18.32482,13.89621 19.95035,13.94716 0.51562,0.0161 0.9375,-3.88043 0.9375,-8.6591 z M 86.365807,1018.2928 c -2.14804,-4.0136 -1.60089,-21.41496 1.11368,-35.41836 3.34697,-17.26587 7.9336,-31.60107 22.470803,-70.23107 19.29153,-51.2638 22.75062,-67.4899 25.73828,-120.7345 l 0.80198,-14.2926 12.93637,-13.8324 c 7.115,-7.6078 15.56015,-17.2074 18.76702,-21.3324 15.19582,-19.5465 30.73875,-46.4114 39.95672,-69.0625 2.58798,-6.35937 5.1252,-11.56247 5.63826,-11.56247 1.4608,0 2.2475,6.3847 3.801,30.84627 2.0097,31.6466 1.2633,48.1474 -2.5043,55.3653 -6.52359,12.4977 -11.18354,16.2884 -20.02353,16.2884 -5.55907,0 -6.24869,1.0387 -2.77615,4.1813 4.17761,3.7806 10.9236,1.8062 23.67708,-6.93 2.936,-2.0111 9.0175,-5.3784 13.5146,-7.4828 6.5761,-3.0773 9.281,-3.7018 13.8195,-3.1902 17.9459,2.0227 24.5718,31.6008 9.6996,43.2993 -5.05,3.9723 -12.336,5.5835 -16.3486,3.6153 -4.7953,-2.3522 -8.1958,-7.5948 -8.3705,-12.905 -0.1454,-4.4192 0.099,-4.713 5.1995,-6.2425 6.7316,-2.0187 9.0229,-3.9055 9.0229,-7.4297 0,-3.7172 -3.7579,-6.9157 -8.1252,-6.9157 -5.3826,0 -13.7467,9.3294 -16.3295,18.2142 -2.5452,8.7551 -1.6563,12.7841 6.9645,31.5663 3.4321,7.4776 6.2381,14.9454 6.2355,16.5951 -0.013,7.7362 -12.0138,17.6492 -23.4431,19.3631 -6.65476,0.9979 -15.70629,-1.171 -21.94751,-5.2591 -3.83909,-2.5147 -4.53111,-2.6835 -3.54506,-0.8646 1.9693,3.6325 8.01016,8.8572 12.06536,10.4352 2.0625,0.8025 9.43364,1.5938 16.3803,1.7582 12.42181,0.294 12.72911,0.3743 18.61721,4.8702 6.2851,4.799 11.9504,5.8671 15.7479,2.9691 5.0573,-3.8593 6.4504,-9.6586 7.5478,-31.4195 0.5887,-11.6726 1.3832,-22.2088 1.7656,-23.4135 0.3824,-1.2048 2.4943,-3.3081 4.6932,-4.6739 11.7483,-7.2975 18.2716,-18.7266 19.2563,-33.738 1.1011,-16.785 -4.2326,-33.0079 -15.8058,-48.075 -10.2952,-13.4033 -11.7885,-17.6793 -12.347,-35.3537 l -0.4787,-15.151 18.285,-18.85517 c 17.3853,-17.9276 23.114,-25.8182 23.1857,-31.9356 0.015,-1.2885 -1.8894,-6.6322 -4.2323,-11.875 -5.8382,-13.06439 -7.4915,-21.86801 -7.5417,-40.1573 -0.033,-12.15338 0.4395,-16.73592 2.1279,-20.625 l 2.1707,-5 -5.0352,5.625 c -14.6322,16.34615 -16.5578,32.22724 -6.7736,55.8634 5.35,12.9241 5.4545,17.1839 0.5865,23.904 -4.8996,6.7636 -9.5921,9.863 -12.3386,8.1496 -5.2034,-3.2462 -5.5587,-8.0391 -5.3584,-72.292 0.105,-33.6875 0.5436,-70.61909 0.9748,-82.0702 l 0.784,-20.8202 6.2742,-6.0548 c 7.957,-7.67863 12.5451,-17.46616 15.8347,-33.77916 2.157,-10.69687 2.3431,-13.76341 1.1674,-19.24534 -1.7209,-8.02413 -8.7403,-16.17847 -16.7853,-19.49911 -5.1363,-2.12005 -5.6168,-2.72269 -6.8026,-8.53119 -1.6644,-8.15286 -3.7259,-28.2344 -3.7534,-36.5625 -0.021,-6.38394 0.075,-6.5625 3.5346,-6.5625 8.9012,0 29.038,18.27015 36.2214,32.86381 4.9517,10.05979 6.4043,16.67225 6.4418,29.32369 0.017,5.67188 0.5517,10.3125 1.1886,10.3125 0.637,0 2.6773,-3.1052 4.5342,-6.90044 3.0165,-6.16552 3.3136,-7.92948 2.7897,-16.5625 -1.0802,-17.80212 -14.4523,-42.35465 -33.4636,-61.44277 -5.4324,-5.4543 -11.0461,-12.20843 -12.4749,-15.00918 -10.0892,-19.77652 -2.8268,-72.41362 18.7078,-135.59076 7.079,-20.76806 10.7905,-28.71179 16.4001,-35.10066 l 3.9059,-4.44861 -3.3732,1.28248 c -8.099,3.07925 -14.7779,9.44562 -27.238,25.96348 -7.126,9.44669 -13.8395,17.34587 -14.9189,17.55373 -1.0794,0.20788 -2.3824,-0.63403 -2.8955,-1.87091 -0.513,-1.23687 -1.3634,-18.28011 -1.8895,-37.87386 -0.5323,-19.81863 -1.5481,-37.116447 -2.2896,-38.986497 -0.7331,-1.84883 -2.6198,-4.05024 -4.1927,-4.89205 -3.7246,-1.99332 -27.1088,-1.95923 -30.8537,0.045 -3.48566,1.86547 -5.15611,6.17106 -5.15611,13.289917 l 0,5.54363 -5.06208,0 c -6.86693,0 -10.96372,2.37487 -17.64613,10.22934 -11.17246,13.13203 -16.34954,23.84383 -18.63121,38.54955 -1.56558,10.09042 0.005,23.46787 3.74764,31.92976 2.73219,6.17657 10.3907,14.98533 15.18327,17.46366 3.17947,1.64416 3.45141,1.57689 4.1165,-1.01842 0.39167,-1.52839 3.25545,-6.15389 6.36393,-10.27889 6.0934,-8.086 6.93625,-12.06611 3.82805,-18.0767 -2.26561,-4.38123 -7.68247,-8.7983 -10.78973,-8.7983 -1.26643,0 -3.22402,1.40625 -4.35019,3.125 -1.12616,1.71875 -2.89011,3.125 -3.91987,3.125 -1.52795,0 -1.7833,-1.57498 -1.3884,-8.5637 0.3816,-6.75341 1.47257,-10.56419 5.16091,-18.02703 5.28825,-10.70003 15.63201,-21.30301 20.1522,-20.65718 4.26824,0.60981 5.87361,17.57131 6.12827,64.74791 0.24036,44.52723 -0.99605,70.42404 -3.32523,69.64764 -0.78525,-0.26175 -6.13567,-7.18018 -11.8898,-15.37428 -13.61013,-19.38132 -25.55603,-34.56296 -40.20245,-51.09192 -6.51788,-7.35563 -13.53818,-15.35385 -15.60068,-17.77381 l -3.75,-4.39996 0,-26.64522 c 0,-14.65487 -0.36656,-27.01379 -0.81457,-27.46424 -1.88068,-1.89095 -20.16478,-3.37789 -32.93543,-2.67843 -14.629253,0.80123 -26.242276,3.07677 -33.594356,6.58272 l -4.5045,2.14806 -17.20058,-8.79727 c -9.46032,-4.8385 -20.99745,-10.36801 -25.63808,-12.2878 -4.64062,-1.9198 -8.4375,-4.18315 -8.4375,-5.029687 0,-4.85677 20.57461,-17.421521 37.5,-22.900951 12.74355,-4.12559 33.316823,-8.65299 45.625013,-10.04032 16.597973,-1.87088 397.153713,-3.19399 415.365413,-1.44414 26.5696,2.55291 46.6544,8.21881 70.8846,19.996541 30.4186,14.785767 55.425,37.166107 71.9879,64.428067 7.4657,12.28824 20.2907,38.35053 24.0024,48.77638 7.2808,20.45113 11.5212,49.82168 11.4558,79.34862 -0.085,38.29814 -8.6646,63.60023 -33.688,99.34577 -13.7005,19.57101 -27.229,35.05454 -35.0081,40.06747 -3.4375,2.21512 -12.4375,8.69816 -20,14.40674 -9.9546,7.51428 -18.753,12.75904 -31.875,19.00091 -9.9688,4.74191 -21.0781,10.02596 -24.6875,11.74232 -3.6094,1.71637 -6.5625,3.59179 -6.5625,4.16762 0,1.79738 7.2853,7.28121 16.0067,12.0486 20.8583,11.40185 27.3357,16.12365 40.4848,29.51211 16.5258,16.82664 27.2178,29.36763 43.1963,50.66639 26.7928,35.71391 40.8258,71.75767 65.3269,167.79204 20.7676,81.4007 29.3848,109.0178 44.853,143.75 13.2905,29.8422 38.6121,66.2936 55.727,80.221 15.2124,12.3793 30.0493,17.2925 44.2673,14.6593 8.9996,-1.6668 12.638,-4.4554 12.638,-9.6865 0,-8.2002 -9.8465,-10.3474 -21.1599,-4.6144 -7.2461,3.6719 -8.5069,2.8239 -7.0834,-4.7639 1.3066,-6.9644 7.3264,-11.232 17.8476,-12.6525 10.6695,-1.4405 20.0644,1.1846 26.2067,7.3226 16.4377,16.4264 4.5802,42.82517 -21.5969,48.08227 -9.3578,1.8792 -19.3956,1.7752 -35.4916,-0.3679 -39.7582,-5.2937 -72.4118,-19.84047 -106.8475,-47.59937 -20.9044,-16.8511 -46.605,-31.5204 -66.25,-37.8139 -5.9787,-1.9152 -33.5681,-7.5213 -79.1449,-16.082 -4.3251,-0.8123 -5.876,-5.9752 -9.5241,-31.7047 -4.0123,-28.2978 -10.2448,-55.7339 -18.3671,-80.8535 -7.6431,-23.6375 -58.3187,-155.58907 -68.0468,-177.18341 -7.9463,-17.63935 -21.5568,-42.11539 -30.1043,-54.13734 -16.6441,-23.40958 -36.7736,-38.50297 -58.8959,-44.1609 -12.4297,-3.179 -38.3634,-3.48601 -39.5216,-0.46787 -3.427,8.9306 -3.9552,118.69045 -0.8177,169.92805 1.6123,26.33117 1.5774,103.60737 -0.073,161.24997 -1.1994,41.8929 -1.6743,48.9697 -3.3767,50.3125 -1.0895,0.8594 -5.1078,1.5631 -8.9295,1.564 -19.3644,0 -61.1455,6.7609 -97.5736,15.7792 -19.84056,4.9119 -26.63032,7.2877 -47.8051,16.7269 -29.00698,12.9309 -41.89933,21.1051 -55.13293,34.9567 -15.63733,16.3673 -27.01137,35.53507 -35.254033,59.41063 -4.08242,11.8251 -4.88279,12.9723 -6.69215,9.5914 z M 276.81522,862.13897 c 1.7796,-17.5303 6.1498,-25.3086 14.4513,-25.721 4.7746,-0.2372 4.6161,-0.8184 2.9152,10.6889 -0.5904,3.9936 -0.1505,5.1931 3.0939,8.4375 2.0801,2.0802 4.697,3.7821 5.8153,3.7821 12.3029,0 24.7405,-27.885 16.8895,-37.8659 -9.9828,-12.6911 -43.3972,-3.6888 -52.4941,14.1427 -2.3069,4.5218 -4.9863,20.7787 -4.9863,30.2529 l 0,4.7203 6.7294,0 6.7293,0 0.8565,-8.4375 z m 338.5794,-4.2654 c 1.5017,-0.7991 4.8629,-3.1619 7.4693,-5.2506 l 4.739,-3.7976 5.886,2.2622 c 11.0455,4.2453 14.2989,4.7419 19.6361,2.9979 4.21,-1.3759 5.0585,-2.2311 5.3705,-5.4131 0.2057,-2.0971 -4.036,-18.5089 -9.5305,-36.875 -12.2545,-40.963 -16.1846,-57.0013 -14.404,-58.782 0.9062,-0.9062 4.5128,0.098 11.8093,3.2865 33.8973,14.8151 48.385,30.8267 49.6232,54.8429 0.4037,7.8339 -0.043,11.7118 -2.0202,17.545 -1.3961,4.1185 -2.2896,7.7371 -1.9855,8.0413 1.3632,1.363 7.664,-4.9624 10.4165,-10.4568 3.6774,-7.3411 4.8539,-21.695 2.6487,-32.3174 -2.191,-10.5543 -9.021,-23.1426 -17.6884,-32.6015 -4.2091,-4.5935 -17.1217,-15.9745 -28.6946,-25.2911 -23.665,-19.0511 -30.0695,-26.7585 -35.708,-42.9721 -5.2099,-14.9808 -5.299,-25.05687 -0.3928,-44.39067 3.6365,-14.3299 4.1199,-18.1701 4.0912,-32.5 -0.021,-10.3241 -0.7818,-19.66881 -2.0872,-25.625 -4.8389,-22.07789 -18.2154,-38.8935 -36.6184,-46.03296 -13.8793,-5.38448 -13.9079,-5.26898 -2.3424,9.4517 18.691,23.78985 26.4974,44.15464 25.3482,66.12606 -0.4598,8.7907 -1.3093,12.9247 -3.5939,17.4898 -3.4083,6.8106 -6.1167,8.5048 -6.1167,3.8262 0,-4.9597 -4.8977,-19.4548 -10.0114,-29.6296 -7.1957,-14.31729 -15.1357,-25.23695 -35.281,-48.5211 -25.0608,-28.96543 -42.8317,-44.33889 -62.8326,-54.35591 -8.0986,-4.05599 -24.0175,-9.1284 -25.1364,-8.00948 -0.2667,0.26665 4.9175,2.62303 11.5203,5.23638 9.8088,3.88222 13.4803,6.1314 20.0674,12.29336 4.4342,4.14799 9.4991,9.99358 11.2552,12.9902 3.2784,5.59424 3.3164,6.75479 0.5645,17.26035 -0.7203,2.75 -0.9514,8.09375 -0.5134,11.875 l 0.7963,6.875 1.6252,-3.96704 c 0.8938,-2.18187 2.6918,-4.30557 3.9954,-4.71934 8.5074,-2.70013 19.4256,11.88189 28.8067,38.47348 5.4168,15.3543 5.3157,24.0506 -0.4812,41.3769 -2.4631,7.3618 -4.375,15.5816 -4.375,18.8089 0,6.1322 2.5308,13.483 5.9384,17.24837 1.9871,2.1957 2.2048,1.7934 4.2995,-7.94367 1.2136,-5.6411 3.0933,-11.61 4.1772,-13.2642 2.2802,-3.4801 9.0029,-7.8769 12.0542,-7.8837 3.1741,-0.01 17.0009,19.1553 22.9962,31.87027 7.4539,15.8084 9.7276,27.2834 9.0002,45.4233 -0.6515,16.2484 -3.5218,26.8242 -9.7286,35.8454 -7.1704,10.4218 -16.624,12.7413 -26.1733,6.4219 l -5.0638,-3.3511 0,3.523 c 0,5.336 6.581,14.7428 12.3857,17.7042 2.7581,1.4071 7.4277,2.5562 10.377,2.5536 8.3162,-0.01 12.5257,-3.3904 18.4951,-14.8642 7.1287,-13.7023 10.824,-14.5015 16.4114,-3.5494 2.7183,5.3284 6.6316,22.1503 7.9468,34.1609 l 0.8342,7.6175 -12.6164,0.7687 c -20.176,1.2291 -27.6023,6.0765 -27.5716,17.9966 0.014,5.2369 4.6409,16.17 9.5906,22.6594 6.0336,7.9104 14.3779,10.9253 20.7918,7.5123 z M 474.40312,438.14474 c 15.6658,-5.91119 20.266,-8.23125 37.821,-19.07448 51.1214,-31.57615 80.7121,-65.25082 93.5405,-106.45055 1.2556,-4.03247 2.9965,-7.60561 3.8687,-7.94031 2.819,-1.08174 12.4323,5.58206 14.579,10.10587 4.1487,8.74279 1.4483,21.04419 -7.3497,33.4812 -9.1972,13.00112 -13.004,20.10729 -13.8718,25.89419 -0.991,6.60806 1.3118,17.77761 4.4688,21.6764 l 2.2975,2.83733 0.8378,-6.23645 c 2.5714,-19.14025 7.8533,-32.89907 17.6678,-46.02219 6.5407,-8.74581 9.2373,-17.09656 9.2373,-28.60628 0,-13.06623 -3.5038,-19.68327 -14.4273,-27.24676 l -5.0522,-3.49821 0.9669,-12.01196 c 0.5318,-6.60659 1.785,-13.59383 2.7847,-15.5272 1.1084,-2.14328 4.8872,-5.1512 9.6823,-7.70693 4.3254,-2.30544 10.5702,-6.8975 13.8773,-10.20457 10.275,-10.27503 17.7011,-29.97283 14.713,-39.02667 -1.9883,-6.02488 -4.9665,-8.17556 -13.1697,-9.51067 -9.5845,-1.5599 -14.7005,-6.06266 -25.9698,-22.8565 -7.0776,-10.54726 -8.5357,-10.28463 -5.9926,1.07936 1.6917,7.55918 5.8773,14.50128 16.9323,28.08301 9.8824,12.14118 11.0271,16.36779 6.495,23.98034 -7.3089,12.27638 -14.036,15.57809 -17.6197,8.64785 -1.0143,-1.96126 -3.9047,-10.53939 -6.4232,-19.0625 -7.8429,-26.5414 -12.8288,-35.4027 -34.3213,-60.99784 -13.2103,-15.7321 -21.0236,-22.69386 -33.9506,-30.25058 -11.4622,-6.70047 -16.5355,-13.45047 -11.5479,-15.3644 1.0875,-0.41732 4.8844,-0.81005 8.4375,-0.87277 l 6.4603,-0.114 -7.5,-2.38007 c -9.5744,-3.038337 -35.7002,-8.066507 -55,-10.585287 -19.8206,-2.58674 -49.5971,-3.7446 -46.5443,-1.80987 1.2131,0.76883 13.0256,5.04352 26.25,9.499277 28.1406,9.48159 41.5227,15.75454 50.6502,23.74259 8.7468,7.65485 11.5265,13.28461 11.4916,23.2741 -0.032,9.14809 -3.1084,17.03618 -9.0384,23.1748 -4.4528,4.60936 -3.0477,5.19159 3.9336,1.62998 5.0972,-2.60039 9.1313,-6.98504 15.5174,-16.86582 2.1944,-3.39532 4.6649,-6.38595 5.4899,-6.64583 2.5395,-0.79995 12.7875,9.73103 17.8761,18.36985 5.4883,9.31727 9.4459,20.30495 10.6891,29.67692 1.036,7.80949 -0.074,8.66771 -13.3711,10.33735 -5.3635,0.67346 -10.2798,2.0894 -12.2112,3.51693 -8.1518,6.02527 -12.3646,21.93651 -7.9971,30.20427 2.2931,4.34081 8.5385,9.85615 9.7683,8.62635 0.3686,-0.36854 -0.1962,-4.40574 -1.2551,-8.97156 -1.9104,-8.23738 -1.5611,-13.56755 1.1108,-16.95154 2.169,-2.74699 10.9347,-6.30092 15.7652,-6.39181 2.4062,-0.0453 6.625,-0.93835 9.375,-1.98461 2.75,-1.04627 5.8644,-2.18082 6.921,-2.52124 1.3587,-0.43776 3.4251,2.05631 7.0588,8.51966 13.2406,23.55105 15.9602,47.43279 8.673,76.15976 -1.6729,6.59478 -4.2876,14.46288 -5.8105,17.48468 -5.6457,11.20287 -16.5694,21.86495 -20.7555,20.25856 -1.1461,-0.43979 -1.7118,-2.80987 -1.7118,-7.17127 0,-9.26384 -3.0117,-18.29303 -7.5527,-22.64363 -3.5465,-3.39774 -4.594,-3.69951 -12.8419,-3.69951 -10.0663,0 -14.0767,1.99829 -17.8603,8.8993 -3.0908,5.63748 -1.699,7.96943 4.7782,8.00553 8.7024,0.0485 15.1217,2.07266 18.3155,5.77537 2.5762,2.98671 2.8793,4.34395 2.3176,10.37795 -0.3555,3.81801 -3.007,13.12935 -5.8923,20.69185 -4.6905,12.29399 -5.8692,18.36016 -4.7452,24.41956 0.2051,1.10557 -3.6194,5.316 -9.0189,9.92904 -5.1563,4.40521 -14.8863,13.25665 -21.6223,19.66989 -15.0204,14.30059 -21.4157,18.61854 -39.0184,26.3441 -13.6134,5.97475 -21.8447,10.22344 -16.2343,8.37952 1.375,-0.45191 8.1376,-2.9489 15.0281,-5.54887 z m -80.7164,-0.6505 c 22.0189,-4.70139 42.7636,-16.5757 69.2552,-39.64175 24.1792,-21.0527 38.8952,-42.66988 45.2171,-66.42197 10.9477,-41.1319 2.9291,-105.4633 -19.3259,-155.04687 -11.6431,-25.94079 -31.7547,-46.89073 -52.446,-54.63233 -15.7377,-5.88825 -45.3874,-9.13646 -77.0121,-8.43692 l -17.5,0.3871 -0.9532,23.75 c -0.5242,13.0625 -0.7711,82.53125 -0.5485,154.375 0.3482,112.3731 0.6737,131.73389 2.3293,138.56105 1.0586,4.36482 2.7116,8.48071 3.6735,9.14641 2.5579,1.7703 36.2745,0.31667 47.3106,-2.03972 z"
       id="path3347"
       inkscape:connector-curvature="0"
       inkscape:export-xdpi="90"
       inkscape:export-ydpi="90" />
  </g>
</svg>
